Coordinates
version=1
nRows=4
nColumns=63
inDegrees=yes

Units are S.I. units (second, meters, Newtons, ...)
If the header above contains a line with 'inDegrees', this indicates whether rotational values are in degrees (yes) or radians (no).

endheader
time	pelvis_tilt	pelvis_list	pelvis_rotation	pelvis_tx	pelvis_ty	pelvis_tz	hip_flexion_r	hip_adduction_r	hip_rotation_r	knee_angle_r	knee_angle_r_beta	ankle_angle_r	subtalar_angle_r	mtp_angle_r	hip_flexion_l	hip_adduction_l	hip_rotation_l	knee_angle_l	knee_angle_l_beta	ankle_angle_l	subtalar_angle_l	mtp_angle_l	L5_S1_Flex_Ext	L5_S1_Lat_Bending	L5_S1_axial_rotation	L4_L5_Flex_Ext	L4_L5_Lat_Bending	L4_L5_axial_rotation	L3_L4_Flex_Ext	L3_L4_Lat_Bending	L3_L4_axial_rotation	L2_L3_Flex_Ext	L2_L3_Lat_Bending	L2_L3_axial_rotation	L1_L2_Flex_Ext	L1_L2_Lat_Bending	L1_L2_axial_rotation	L1_T12_Flex_Ext	L1_T12_Lat_Bending	L1_T12_axial_rotation	Abs_r3	Abs_r2	Abs_r1	Abs_t1	Abs_t2	neck_flexion	neck_bending	neck_rotation	arm_flex_r	arm_add_r	arm_rot_r	elbow_flex_r	pro_sup_r	wrist_flex_r	wrist_dev_r	arm_flex_l	arm_add_l	arm_rot_l	elbow_flex_l	pro_sup_l	wrist_flex_l	wrist_dev_l
     11.24200000	    -51.58259637	     -3.52049352	     -1.46011271	     -0.36764945	      0.98675866	      0.04177145	    128.86777524	     -9.78517466	     -5.40008411	     91.43977288	      1.59592510	      8.50143592	     -3.00858588	      0.00000000	    100.46756528	    -10.01628245	      3.64006168	     78.60404437	      1.37189938	      0.91678110	      5.15043073	      0.00000000	     -0.08596473	      0.38834185	      0.43757727	     -0.15964510	      0.51649466	      0.46492585	     -0.14123146	      0.94421438	      0.46492585	     -0.09824909	      0.94421438	      0.38288011	     -0.07982685	      0.79190670	      0.35553153	     -0.04912025	      0.60154153	      0.32818295	     -0.61403748	      4.39300068	      2.43367352	      0.00000000	      0.00000000	     -0.00000000	      0.00000000	     -0.00000000	     72.43254754	     -9.88217838	     12.03276906	     33.76004661	     30.32705837	      0.00000000	      5.00000014	     73.40514403	     -6.31071077	      5.83107763	     30.34267288	     36.21216699	      0.00000000	      5.00000014
     11.25000000	    -51.60158135	     -3.39893098	     -0.97072696	     -0.36801005	      0.98681903	      0.04205855	    127.90112003	     -9.89771004	     -5.24854715	     89.52070949	      1.56243113	      8.09053302	     -2.91953878	      0.00000000	    101.29128799	     -9.65828076	      3.74922106	     80.37336842	      1.40277991	      1.00267357	      5.42719550	      0.00000000	     -0.08515849	      0.35015732	      0.36606086	     -0.15814783	      0.46570924	      0.38893966	     -0.13990688	      0.85137251	      0.38893966	     -0.09732764	      0.85137251	      0.32030325	     -0.07907817	      0.71404081	      0.29742445	     -0.04865956	      0.54239369	      0.27454564	     -0.60827856	      3.96104966	      2.03592068	      0.00000000	      0.00000000	     -0.00000000	      0.00000000	     -0.00000000	     72.29693127	     -9.93597372	     11.75831679	     33.82918205	     30.24483996	      0.00000000	      5.00000014	     73.57500428	     -6.26454696	      5.93276826	     30.26196309	     36.20870067	      0.00000000	      5.00000014
     11.25800000	    -51.63958126	     -3.48504526	     -0.72433666	     -0.36831559	      0.98699898	      0.04244632	    126.75295470	     -9.99034606	     -5.52748026	     87.50074290	      1.52717606	      7.63760357	     -2.84668420	      0.00000000	    102.24152147	     -9.57408857	      4.05199028	     82.24702999	      1.43548147	      1.25598356	      6.07989833	      0.00000000	     -0.08604065	      0.33957061	      0.35471953	     -0.15978609	      0.45162891	      0.37688950	     -0.14135619	      0.82563198	      0.37688950	     -0.09833586	      0.82563198	      0.31037959	     -0.07989735	      0.69245238	      0.28820962	     -0.04916363	      0.52599487	      0.26603965	     -0.61457977	      3.84129063	      1.97284359	      0.00000000	      0.00000000	     -0.00000000	      0.00000000	     -0.00000000	     72.10865982	    -10.06708003	     11.05928471	     34.07632676	     30.03194684	      0.00000000	      5.00000014	     73.70979594	     -6.13715869	      6.25958499	     30.35108084	     36.21045150	      0.00000000	      5.00000014
     11.26700000	    -51.65779515	     -3.30022186	      0.07660647	     -0.36850695	      0.98712759	      0.04212632	    125.80489973	    -10.43190534	     -5.20691591	     85.74225236	      1.49648461	      7.13427577	     -2.73851262	      0.00000000	    102.99036639	     -8.91252672	      3.92118769	     83.92644357	      1.46479277	      1.60388351	      6.17212299	      0.00000000	     -0.08626639	      0.29438962	      0.23474544	     -0.16020532	      0.39153819	      0.24941703	     -0.14172706	      0.71577892	      0.24941703	     -0.09859386	      0.71577892	      0.20540226	     -0.08010697	      0.60031931	      0.19073067	     -0.04929262	      0.45600952	      0.17605908	     -0.61619221	      3.33019425	      1.30558369	      0.00000000	      0.00000000	     -0.00000000	      0.00000000	     -0.00000000	     71.98502902	    -10.20719987	     10.95366498	     34.14895200	     30.00277858	      0.00000000	      5.00000014	     73.81561782	     -6.03976529	      6.32450343	     30.47455329	     36.21303570	      0.00000000	      5.00000014
